HIERARCHY
ROOT Hips
{
	OFFSET 0.000000 0.000000 0.000000
	CHANNELS 6 Xposition Yposition Zposition Zrotation Yrotation Xrotation 
	JOINT LHipJoint
	{
		OFFSET 0.000000 0.000000 0.000000
		CHANNELS 3 Zrotation Yrotation Xrotation
		JOINT LeftUpLeg
		{
			OFFSET 1.363060 -1.794630 0.839290
			CHANNELS 3 Zrotation Yrotation Xrotation
			JOINT LeftLeg
			{
				OFFSET 2.448110 -6.726130 0.000000
				CHANNELS 3 Zrotation Yrotation Xrotation
				JOINT LeftFoot
				{
					OFFSET 2.562200 -7.039590 0.000000
					CHANNELS 3 Zrotation Yrotation Xrotation
					JOINT LeftToeBase
					{
						OFFSET 0.157640 -0.433110 2.322550
						CHANNELS 3 Zrotation Yrotation Xrotation
						End Site
						{
							OFFSET 0.000000 0.000000 0.000000
						}
					}
				}
			}
		}
	}
	JOINT RHipJoint
	{
		OFFSET 0.000000 0.000000 0.000000
		CHANNELS 3 Zrotation Yrotation Xrotation
		JOINT RightUpLeg
		{
			OFFSET -1.305520 -1.794630 0.839290
			CHANNELS 3 Zrotation Yrotation Xrotation
			JOINT RightLeg
			{
				OFFSET -2.542530 -6.985550 0.000000
				CHANNELS 3 Zrotation Yrotation Xrotation
				JOINT RightFoot
				{
					OFFSET -2.568260 -7.056230 0.000000
					CHANNELS 3 Zrotation Yrotation Xrotation
					JOINT RightToeBase
					{
						OFFSET -0.164730 -0.452590 2.363150
						CHANNELS 3 Zrotation Yrotation Xrotation
						End Site
						{
							OFFSET 0.000000 0.000000 0.000000
						}
					}
				}
			}
		}
	}
	JOINT LowerBack
	{
		OFFSET 0.000000 0.000000 0.000000
		CHANNELS 3 Zrotation Yrotation Xrotation
		JOINT Spine
		{
			OFFSET 0.028270 2.035590 -0.193380
			CHANNELS 3 Zrotation Yrotation Xrotation
			JOINT Spine1
			{
				OFFSET 0.056720 2.048850 -0.042750
				CHANNELS 3 Zrotation Yrotation Xrotation
				JOINT Neck
				{
					OFFSET 0.000000 0.000000 0.000000
					CHANNELS 3 Zrotation Yrotation Xrotation
					JOINT Neck1
					{
						OFFSET -0.054170 1.746240 0.172020
						CHANNELS 3 Zrotation Yrotation Xrotation
						JOINT Head
						{
							OFFSET 0.104070 1.761360 -0.123970
							CHANNELS 3 Zrotation Yrotation Xrotation
							End Site
							{
								OFFSET 0.000000 0.000000 0.000000
							}
						}
					}
				}
				JOINT LeftShoulder
				{
					OFFSET 0.000000 0.000000 0.000000
					CHANNELS 3 Zrotation Yrotation Xrotation
					JOINT LeftArm
					{
						OFFSET 3.362410 1.200890 -0.311210
						CHANNELS 3 Zrotation Yrotation Xrotation
						JOINT LeftForeArm
						{
							OFFSET 4.983000 -0.000000 -0.000000
							CHANNELS 3 Zrotation Yrotation Xrotation
							JOINT LeftHand
							{
								OFFSET 3.483560 -0.000000 -0.000000
								CHANNELS 3 Zrotation Yrotation Xrotation
								JOINT LeftFingerBase
								{
									OFFSET 0.000000 0.000000 0.000000
									CHANNELS 3 Zrotation Yrotation Xrotation
									JOINT LeftHandIndex1
									{
										OFFSET 0.715260 -0.000000 -0.000000
										CHANNELS 3 Zrotation Yrotation Xrotation
										End Site
										{
											OFFSET 0.000000 0.000000 0.000000
										}
									}
								}
								JOINT LThumb
								{
									OFFSET 0.000000 0.000000 0.000000
									CHANNELS 3 Zrotation Yrotation Xrotation
									End Site
									{
										OFFSET 0.000000 0.000000 0.000000
									}
								}
							}
						}
					}
				}
				JOINT RightShoulder
				{
					OFFSET 0.000000 0.000000 0.000000
					CHANNELS 3 Zrotation Yrotation Xrotation
					JOINT RightArm
					{
						OFFSET -3.136600 1.374050 -0.404650
						CHANNELS 3 Zrotation Yrotation Xrotation
						JOINT RightForeArm
						{
							OFFSET -5.241900 -0.000000 -0.000000
							CHANNELS 3 Zrotation Yrotation Xrotation
							JOINT RightHand
							{
								OFFSET -3.444170 -0.000000 -0.000000
								CHANNELS 3 Zrotation Yrotation Xrotation
								JOINT RightFingerBase
								{
									OFFSET 0.000000 0.000000 0.000000
									CHANNELS 3 Zrotation Yrotation Xrotation
									JOINT RightHandIndex1
									{
										OFFSET -0.622530 -0.000000 -0.000000
										CHANNELS 3 Zrotation Yrotation Xrotation
										End Site
										{
											OFFSET 0.000000 0.000000 0.000000
										}
									}
								}
								JOINT RThumb
								{
									OFFSET 0.000000 0.000000 0.000000
									CHANNELS 3 Zrotation Yrotation Xrotation
									End Site
									{
										OFFSET 0.000000 0.000000 0.000000
									}
								}
							}
						}
					}
				}
			}
		}
	}
}
MOTION
Frames: 4
Frame Time: 0.008333
-0.622275 17.117256 -28.456601 2.154541 12.672071 19.232389 -2.867010 -1.066306 0.491722 -15.513349 -1.353600 0.545720 -0.733074 6.113556 16.894432 2.300994 -12.419388 -5.625115 2.772441 -10.234444 -29.814752 -0.411549 2.160563 -4.386879 15.087678 3.750373 -47.798028 -0.030784 -10.133602 24.500094 -0.286443 -0.856557 5.423613 -1.531837 7.800397 -22.116315 -0.083974 -3.012704 -7.850354 1.541469 -4.261544 -9.504990 -0.488151 -2.063650 0.423362 -1.176676 -1.985658 -7.592036 3.944480 -2.931120 10.204487 -0.026333 -1.231128 2.908154 13.042207 7.070957 -0.855391 -93.298034 -15.444276 30.572833 25.307982 -43.301659 -9.655362 -0.010647 -0.549614 -8.772649 23.862647 -18.602837 -7.817685 -7.125000 0.000000 0.000000 -2.669144 10.427572 2.144208 -13.262114 -6.676924 1.701872 103.624899 -23.812261 -56.360826 -3.118638 10.037289 0.046525 -1.608540 0.294213 53.820990 -16.543118 -34.137745 8.549110 7.125000 0.000000 0.000000 20.934479 -62.942809 -9.332183
-0.618647 17.113723 -28.338429 2.007978 12.635184 19.237487 -2.839314 -1.062015 0.481897 -15.346657 -1.671682 0.645296 -0.658065 6.347182 17.568313 2.258404 -12.174430 -5.378452 2.961941 -10.611102 -31.001259 -0.434995 2.127089 -4.363585 15.073531 4.153000 -47.795497 -0.154077 -10.401040 25.263974 -0.230699 -1.253373 5.329709 -1.607526 7.994756 -22.698610 0.189336 -2.998279 -7.889866 1.583938 -4.287527 -9.524594 -0.528828 -2.073738 0.406461 -1.195375 -1.940601 -7.724095 3.898893 -2.858596 10.268345 -0.039826 -1.194997 2.970465 13.045818 7.073686 -0.848577 -93.395970 -15.029207 30.309572 25.685395 -43.622019 -9.878551 -0.005585 -0.542764 -9.021692 23.938454 -18.716959 -7.894001 -7.125000 0.000000 0.000000 -2.632312 10.287074 2.122246 -13.256152 -6.669429 1.684140 103.502099 -23.693036 -56.697637 -3.147084 10.037646 0.047158 -1.603761 0.309418 54.269867 -16.621341 -34.199081 8.608511 7.125000 0.000000 0.000000 20.910587 -63.024119 -9.360991
-0.619712 17.110528 -28.217543 1.857032 12.738309 19.224713 -2.808290 -1.055715 0.470642 -15.092448 -2.044554 0.699275 -0.554279 6.622229 18.368845 2.266238 -12.699375 -4.741306 2.570602 -9.934237 -28.791566 -0.455690 2.094306 -4.339220 14.922549 4.718749 -47.671337 -0.276184 -10.660435 25.998439 -0.130338 -1.966429 4.970722 -1.551309 7.859959 -22.290249 0.411579 -3.049730 -7.915379 1.658269 -4.391088 -9.554996 -0.495934 -2.116744 0.376319 -1.226439 -1.883901 -7.829371 3.837617 -2.767913 10.336985 -0.058644 -1.150696 3.028241 13.052704 7.081149 -0.839420 -93.491852 -14.500765 30.068921 26.123262 -43.990163 -10.140583 0.000522 -0.532728 -9.389885 23.961143 -18.815940 -7.946435 -7.125000 0.000000 0.000000 -2.629854 10.166556 2.126643 -13.241919 -6.659226 1.663181 103.348341 -23.574214 -57.253876 -3.183886 10.028137 0.046520 -1.589707 0.335116 54.990326 -16.672675 -34.168922 8.634751 7.125000 0.000000 0.000000 20.835979 -63.020999 -9.324585
-0.616626 17.102303 -28.107864 1.583042 12.345593 19.394732 -2.789834 -1.081414 0.443543 -14.929547 -2.182154 0.430266 -0.441959 6.926046 19.249222 2.234657 -12.621817 -4.441148 2.558396 -9.879328 -28.645543 -0.482956 2.063474 -4.312189 14.889566 5.563268 -47.822345 -0.396944 -10.911287 26.711011 -0.083110 -2.251989 4.732405 -1.424065 7.520471 -21.278619 0.762889 -2.897767 -8.052930 1.696639 -4.263762 -9.610805 -0.511302 -2.040712 0.298725 -1.260993 -1.826463 -7.899387 3.764784 -2.676232 10.365553 -0.079443 -1.107741 3.061264 13.048747 7.086447 -0.833058 -93.606762 -13.979976 29.831628 26.557325 -44.348376 -10.400711 0.008120 -0.523538 -9.742970 24.032104 -18.878034 -8.000308 -7.125000 0.000000 0.000000 -2.593569 10.079818 2.101765 -13.232975 -6.649704 1.637860 103.180984 -23.426922 -57.828249 -3.217782 10.008220 0.045889 -1.573738 0.362332 55.754010 -16.732139 -34.110548 8.659614 7.125000 0.000000 0.000000 20.727544 -62.995152 -9.261490
